<svg xmlns="http://www.w3.org/2000/svg" width="1600" height="1000" viewBox="0 0 1600 1000">
<defs>
  <filter id="grain" x="-10%" y="-10%" width="120%" height="120%">
    <feTurbulence type="fractalNoise" baseFrequency="0.8" numOctaves="2" seed="7" result="noise"/>
    <feColorMatrix in="noise" type="saturate" values="0"/>
    <feComponentTransfer>
      <feFuncA type="table" tableValues="0 0.055"/>
    </feComponentTransfer>
  </filter>
  <filter id="softShadow" x="-20%" y="-20%" width="140%" height="140%">
    <feDropShadow dx="12" dy="12" stdDeviation="0" flood-color="#111111" flood-opacity="1"/>
  </filter>
  
</defs>
<rect width="1600" height="1000" fill="#6936C9"/>
<circle cx="1320" cy="160" r="150" fill="#7F4BDD" opacity="0.45"/><circle cx="1420" cy="300" r="74" fill="#8A59DD" opacity="0.32"/><circle cx="1200" cy="410" r="110" fill="#5424B5" opacity="0.45"/><text x="70" y="90" font-family="Arial, Helvetica, sans-serif" font-size="28" font-weight="800" fill="#FFFFFF" text-anchor="start" letter-spacing="0">SCORE</text><text x="70" y="140" font-family="Arial, Helvetica, sans-serif" font-size="42" font-weight="900" fill="#FFFFFF" text-anchor="start" letter-spacing="0">1280</text><text x="1410" y="90" font-family="Arial, Helvetica, sans-serif" font-size="28" font-weight="800" fill="#FFFFFF" text-anchor="end" letter-spacing="0">WPM</text><text x="1410" y="140" font-family="Arial, Helvetica, sans-serif" font-size="42" font-weight="900" fill="#FFFFFF" text-anchor="end" letter-spacing="0">98</text><text x="1020" y="250" font-family="Arial, Helvetica, sans-serif" font-size="34" font-weight="800" fill="#FFFFFF" text-anchor="middle" letter-spacing="2">TYPE THE WORD</text><text x="1020" y="330" font-family="Arial, Helvetica, sans-serif" font-size="70" font-weight="900" fill="#FFE229" text-anchor="middle" letter-spacing="2">BANANA</text><path d="M430 410 C560 230 780 245 925 370 C795 590 560 620 390 490 C390 490 410 450 430 410Z" fill="#FFD91E" stroke="#111111" stroke-width="18"/><path d="M475 428 C595 315 740 328 840 397 C735 495 583 510 460 455Z" fill="#FFF16B" opacity="0.72"/><path d="M391 489 C360 486 338 468 342 440 C347 414 378 405 405 420" fill="#6A351A" stroke="#111111" stroke-width="14"/><path d="M920 370 C965 340 994 354 1005 384 C1016 414 997 439 963 447" fill="#6A351A" stroke="#111111" stroke-width="14"/><ellipse cx="684" cy="384" rx="18" ry="25" fill="#111111"/><ellipse cx="745" cy="384" rx="18" ry="25" fill="#111111"/><path d="M690 438 Q718 466 755 433" fill="none" stroke="#111111" stroke-width="14" stroke-linecap="round"/><path d="M520 398 Q470 353 438 370" fill="none" stroke="#111111" stroke-width="14" stroke-linecap="round"/><path d="M868 428 Q920 470 947 455" fill="none" stroke="#111111" stroke-width="14" stroke-linecap="round"/><rect x="300" y="617" width="82" height="82" rx="8" fill="#17131E" stroke="#D7BFFF" stroke-width="4"/><text x="341" y="675" font-family="Arial, Helvetica, sans-serif" font-size="34" font-weight="900" fill="#FFFFFF" text-anchor="middle" letter-spacing="0">Q</text><rect x="400" y="617" width="82" height="82" rx="8" fill="#17131E" stroke="#D7BFFF" stroke-width="4"/><text x="441" y="675" font-family="Arial, Helvetica, sans-serif" font-size="34" font-weight="900" fill="#FFFFFF" text-anchor="middle" letter-spacing="0">W</text><rect x="500" y="617" width="82" height="82" rx="8" fill="#17131E" stroke="#D7BFFF" stroke-width="4"/><text x="541" y="675" font-family="Arial, Helvetica, sans-serif" font-size="34" font-weight="900" fill="#FFFFFF" text-anchor="middle" letter-spacing="0">E</text><rect x="600" y="617" width="82" height="82" rx="8" fill="#17131E" stroke="#D7BFFF" stroke-width="4"/><text x="641" y="675" font-family="Arial, Helvetica, sans-serif" font-size="34" font-weight="900" fill="#FFFFFF" text-anchor="middle" letter-spacing="0">R</text><rect x="700" y="617" width="82" height="82" rx="8" fill="#17131E" stroke="#D7BFFF" stroke-width="4"/><text x="741" y="675" font-family="Arial, Helvetica, sans-serif" font-size="34" font-weight="900" fill="#FFFFFF" text-anchor="middle" letter-spacing="0">T</text><rect x="800" y="617" width="82" height="82" rx="8" fill="#17131E" stroke="#D7BFFF" stroke-width="4"/><text x="841" y="675" font-family="Arial, Helvetica, sans-serif" font-size="34" font-weight="900" fill="#FFFFFF" text-anchor="middle" letter-spacing="0">Y</text><rect x="900" y="617" width="82" height="82" rx="8" fill="#17131E" stroke="#D7BFFF" stroke-width="4"/><text x="941" y="675" font-family="Arial, Helvetica, sans-serif" font-size="34" font-weight="900" fill="#FFFFFF" text-anchor="middle" letter-spacing="0">U</text><rect x="1000" y="617" width="82" height="82" rx="8" fill="#17131E" stroke="#D7BFFF" stroke-width="4"/><text x="1041" y="675" font-family="Arial, Helvetica, sans-serif" font-size="34" font-weight="900" fill="#FFFFFF" text-anchor="middle" letter-spacing="0">I</text><rect x="1100" y="617" width="82" height="82" rx="8" fill="#17131E" stroke="#D7BFFF" stroke-width="4"/><text x="1141" y="675" font-family="Arial, Helvetica, sans-serif" font-size="34" font-weight="900" fill="#FFFFFF" text-anchor="middle" letter-spacing="0">O</text><rect x="1200" y="617" width="82" height="82" rx="8" fill="#17131E" stroke="#D7BFFF" stroke-width="4"/><text x="1241" y="675" font-family="Arial, Helvetica, sans-serif" font-size="34" font-weight="900" fill="#FFFFFF" text-anchor="middle" letter-spacing="0">P</text><rect x="350" y="727" width="82" height="82" rx="8" fill="#17131E" stroke="#D7BFFF" stroke-width="4"/><text x="391" y="785" font-family="Arial, Helvetica, sans-serif" font-size="34" font-weight="900" fill="#FFFFFF" text-anchor="middle" letter-spacing="0">A</text><rect x="450" y="727" width="82" height="82" rx="8" fill="#17131E" stroke="#D7BFFF" stroke-width="4"/><text x="491" y="785" font-family="Arial, Helvetica, sans-serif" font-size="34" font-weight="900" fill="#FFFFFF" text-anchor="middle" letter-spacing="0">S</text><rect x="550" y="727" width="82" height="82" rx="8" fill="#17131E" stroke="#D7BFFF" stroke-width="4"/><text x="591" y="785" font-family="Arial, Helvetica, sans-serif" font-size="34" font-weight="900" fill="#FFFFFF" text-anchor="middle" letter-spacing="0">D</text><rect x="650" y="727" width="82" height="82" rx="8" fill="#17131E" stroke="#D7BFFF" stroke-width="4"/><text x="691" y="785" font-family="Arial, Helvetica, sans-serif" font-size="34" font-weight="900" fill="#FFFFFF" text-anchor="middle" letter-spacing="0">F</text><rect x="750" y="727" width="82" height="82" rx="8" fill="#17131E" stroke="#D7BFFF" stroke-width="4"/><text x="791" y="785" font-family="Arial, Helvetica, sans-serif" font-size="34" font-weight="900" fill="#FFFFFF" text-anchor="middle" letter-spacing="0">G</text><rect x="850" y="727" width="82" height="82" rx="8" fill="#17131E" stroke="#D7BFFF" stroke-width="4"/><text x="891" y="785" font-family="Arial, Helvetica, sans-serif" font-size="34" font-weight="900" fill="#FFFFFF" text-anchor="middle" letter-spacing="0">H</text><rect x="950" y="727" width="82" height="82" rx="8" fill="#17131E" stroke="#D7BFFF" stroke-width="4"/><text x="991" y="785" font-family="Arial, Helvetica, sans-serif" font-size="34" font-weight="900" fill="#FFFFFF" text-anchor="middle" letter-spacing="0">J</text><rect x="1050" y="727" width="82" height="82" rx="8" fill="#17131E" stroke="#D7BFFF" stroke-width="4"/><text x="1091" y="785" font-family="Arial, Helvetica, sans-serif" font-size="34" font-weight="900" fill="#FFFFFF" text-anchor="middle" letter-spacing="0">K</text><rect x="1150" y="727" width="82" height="82" rx="8" fill="#17131E" stroke="#D7BFFF" stroke-width="4"/><text x="1191" y="785" font-family="Arial, Helvetica, sans-serif" font-size="34" font-weight="900" fill="#FFFFFF" text-anchor="middle" letter-spacing="0">L</text><rect x="450" y="837" width="82" height="82" rx="8" fill="#17131E" stroke="#D7BFFF" stroke-width="4"/><text x="491" y="895" font-family="Arial, Helvetica, sans-serif" font-size="34" font-weight="900" fill="#FFFFFF" text-anchor="middle" letter-spacing="0">Z</text><rect x="550" y="837" width="82" height="82" rx="8" fill="#17131E" stroke="#D7BFFF" stroke-width="4"/><text x="591" y="895" font-family="Arial, Helvetica, sans-serif" font-size="34" font-weight="900" fill="#FFFFFF" text-anchor="middle" letter-spacing="0">X</text><rect x="650" y="837" width="82" height="82" rx="8" fill="#17131E" stroke="#D7BFFF" stroke-width="4"/><text x="691" y="895" font-family="Arial, Helvetica, sans-serif" font-size="34" font-weight="900" fill="#FFFFFF" text-anchor="middle" letter-spacing="0">C</text><rect x="750" y="837" width="82" height="82" rx="8" fill="#17131E" stroke="#D7BFFF" stroke-width="4"/><text x="791" y="895" font-family="Arial, Helvetica, sans-serif" font-size="34" font-weight="900" fill="#FFFFFF" text-anchor="middle" letter-spacing="0">V</text><rect x="850" y="837" width="82" height="82" rx="8" fill="#17131E" stroke="#D7BFFF" stroke-width="4"/><text x="891" y="895" font-family="Arial, Helvetica, sans-serif" font-size="34" font-weight="900" fill="#FFFFFF" text-anchor="middle" letter-spacing="0">B</text><rect x="950" y="837" width="82" height="82" rx="8" fill="#17131E" stroke="#D7BFFF" stroke-width="4"/><text x="991" y="895" font-family="Arial, Helvetica, sans-serif" font-size="34" font-weight="900" fill="#FFFFFF" text-anchor="middle" letter-spacing="0">N</text><rect x="1050" y="837" width="82" height="82" rx="8" fill="#17131E" stroke="#D7BFFF" stroke-width="4"/><text x="1091" y="895" font-family="Arial, Helvetica, sans-serif" font-size="34" font-weight="900" fill="#FFFFFF" text-anchor="middle" letter-spacing="0">M</text><rect width="1600" height="1000" fill="#FFFFFF" filter="url(#grain)" opacity="0.32"/></svg>