<svg xmlns="http://www.w3.org/2000/svg" width="1600" height="1000" viewBox="0 0 1600 1000">
<defs>
  <filter id="grain" x="-10%" y="-10%" width="120%" height="120%">
    <feTurbulence type="fractalNoise" baseFrequency="0.8" numOctaves="2" seed="7" result="noise"/>
    <feColorMatrix in="noise" type="saturate" values="0"/>
    <feComponentTransfer>
      <feFuncA type="table" tableValues="0 0.055"/>
    </feComponentTransfer>
  </filter>
  <filter id="softShadow" x="-20%" y="-20%" width="140%" height="140%">
    <feDropShadow dx="12" dy="12" stdDeviation="0" flood-color="#111111" flood-opacity="1"/>
  </filter>
  
</defs>
<rect width="1600" height="1000" fill="#6936C9"/>
<rect x="110" y="70" width="1380" height="860" fill="#FFF9EF" stroke="#111111" stroke-width="12" filter="url(#softShadow)"/><rect x="110" y="70" width="255" height="860" fill="#15121B"/><rect x="110" y="70" width="1380" height="110" fill="#15121B"/><text x="420" y="142" font-family="Arial, Helvetica, sans-serif" font-size="38" font-weight="900" fill="#FFFFFF" text-anchor="start" letter-spacing="0">BUGTRACK</text><rect x="1185" y="100" width="225" height="55" fill="#6E38CF"/><text x="1297" y="137" font-family="Arial, Helvetica, sans-serif" font-size="21" font-weight="900" fill="#FFFFFF" text-anchor="middle" letter-spacing="0">+ NEW ISSUE</text><text x="430" y="260" font-family="Arial, Helvetica, sans-serif" font-size="55" font-weight="900" fill="#111111" text-anchor="start" letter-spacing="0">ISSUES</text><rect x="185" y="240" width="92" height="72" rx="8" fill="#24202A"/><circle cx="231" cy="276" r="16" fill="none" stroke="#FFFFFF" stroke-width="6"/><rect x="185" y="360" width="92" height="72" rx="8" fill="#6E38CF"/><circle cx="231" cy="396" r="16" fill="none" stroke="#FFFFFF" stroke-width="6"/><rect x="185" y="480" width="92" height="72" rx="8" fill="#24202A"/><circle cx="231" cy="516" r="16" fill="none" stroke="#FFFFFF" stroke-width="6"/><rect x="185" y="600" width="92" height="72" rx="8" fill="#24202A"/><circle cx="231" cy="636" r="16" fill="none" stroke="#FFFFFF" stroke-width="6"/><rect x="185" y="720" width="92" height="72" rx="8" fill="#24202A"/><circle cx="231" cy="756" r="16" fill="none" stroke="#FFFFFF" stroke-width="6"/><rect x="425" y="330" width="930" height="78" fill="#FFFFFF" stroke="#D6CDBF" stroke-width="3"/><text x="465" y="381" font-family="Arial, Helvetica, sans-serif" font-size="28" font-weight="700" fill="#111111" text-anchor="start" letter-spacing="0">Login page error</text><rect x="1130" y="347" width="165" height="44" rx="8" fill="#FF6B61"/><text x="1212" y="377" font-family="Arial, Helvetica, sans-serif" font-size="19" font-weight="900" fill="#111111" text-anchor="middle" letter-spacing="0">HIGH</text><rect x="425" y="435" width="930" height="78" fill="#FFFFFF" stroke="#D6CDBF" stroke-width="3"/><text x="465" y="486" font-family="Arial, Helvetica, sans-serif" font-size="28" font-weight="700" fill="#111111" text-anchor="start" letter-spacing="0">API not responding</text><rect x="1130" y="452" width="165" height="44" rx="8" fill="#FFB332"/><text x="1212" y="482" font-family="Arial, Helvetica, sans-serif" font-size="19" font-weight="900" fill="#111111" text-anchor="middle" letter-spacing="0">MEDIUM</text><rect x="425" y="540" width="930" height="78" fill="#FFFFFF" stroke="#D6CDBF" stroke-width="3"/><text x="465" y="591" font-family="Arial, Helvetica, sans-serif" font-size="28" font-weight="700" fill="#111111" text-anchor="start" letter-spacing="0">UI misalignment</text><rect x="1130" y="557" width="165" height="44" rx="8" fill="#77C66E"/><text x="1212" y="587" font-family="Arial, Helvetica, sans-serif" font-size="19" font-weight="900" fill="#111111" text-anchor="middle" letter-spacing="0">LOW</text><rect x="425" y="645" width="930" height="78" fill="#FFFFFF" stroke="#D6CDBF" stroke-width="3"/><text x="465" y="696" font-family="Arial, Helvetica, sans-serif" font-size="28" font-weight="700" fill="#111111" text-anchor="start" letter-spacing="0">Crash on upload</text><rect x="1130" y="662" width="165" height="44" rx="8" fill="#FF6B61"/><text x="1212" y="692" font-family="Arial, Helvetica, sans-serif" font-size="19" font-weight="900" fill="#111111" text-anchor="middle" letter-spacing="0">HIGH</text><rect x="425" y="750" width="930" height="78" fill="#FFFFFF" stroke="#D6CDBF" stroke-width="3"/><text x="465" y="801" font-family="Arial, Helvetica, sans-serif" font-size="28" font-weight="700" fill="#111111" text-anchor="start" letter-spacing="0">Incorrect data shown</text><rect x="1130" y="767" width="165" height="44" rx="8" fill="#77C66E"/><text x="1212" y="797" font-family="Arial, Helvetica, sans-serif" font-size="19" font-weight="900" fill="#111111" text-anchor="middle" letter-spacing="0">LOW</text><rect width="1600" height="1000" fill="#FFFFFF" filter="url(#grain)" opacity="0.15"/></svg>