<svg xmlns="http://www.w3.org/2000/svg" width="1600" height="1000" viewBox="0 0 1600 1000">
<defs>
  <filter id="grain" x="-10%" y="-10%" width="120%" height="120%">
    <feTurbulence type="fractalNoise" baseFrequency="0.8" numOctaves="2" seed="7" result="noise"/>
    <feColorMatrix in="noise" type="saturate" values="0"/>
    <feComponentTransfer>
      <feFuncA type="table" tableValues="0 0.055"/>
    </feComponentTransfer>
  </filter>
  <filter id="softShadow" x="-20%" y="-20%" width="140%" height="140%">
    <feDropShadow dx="12" dy="12" stdDeviation="0" flood-color="#111111" flood-opacity="1"/>
  </filter>
  
</defs>
<rect width="1600" height="1000" fill="#C8F020"/>
<rect x="110" y="75" width="1380" height="850" fill="#FFF9EF" stroke="#111111" stroke-width="12" filter="url(#softShadow)"/><text x="160" y="145" font-family="Arial, Helvetica, sans-serif" font-size="35" font-weight="900" fill="#111111" text-anchor="start" letter-spacing="0">SHOP.CO</text><text x="840" y="142" font-family="Arial, Helvetica, sans-serif" font-size="18" font-weight="800" fill="#111111" text-anchor="start" letter-spacing="0">HOME</text><text x="950" y="142" font-family="Arial, Helvetica, sans-serif" font-size="18" font-weight="800" fill="#111111" text-anchor="start" letter-spacing="0">SHOP</text><text x="1055" y="142" font-family="Arial, Helvetica, sans-serif" font-size="18" font-weight="800" fill="#111111" text-anchor="start" letter-spacing="0">CATEGORIES</text><text x="1235" y="142" font-family="Arial, Helvetica, sans-serif" font-size="18" font-weight="800" fill="#111111" text-anchor="start" letter-spacing="0">ABOUT</text><circle cx="1395" cy="132" r="24" fill="#111111"/><text x="1395" y="141" font-family="Arial, Helvetica, sans-serif" font-size="18" font-weight="900" fill="#FFFFFF" text-anchor="middle" letter-spacing="0">2</text><text x="170" y="285" font-family="Arial, Helvetica, sans-serif" font-size="66" font-weight="900" fill="#111111" text-anchor="start"><tspan x="170" dy="0">NEW</tspan><tspan x="170" dy="72">ARRIVALS</tspan></text><rect x="170" y="440" width="165" height="58" fill="#111111"/><text x="252" y="480" font-family="Arial, Helvetica, sans-serif" font-size="22" font-weight="900" fill="#FFFFFF" text-anchor="middle" letter-spacing="0">SHOP NOW</text><rect x="720" y="225" width="500" height="410" fill="#F1E9DD"/><path d="M935 330 C870 330 850 395 860 470 L870 560 L1045 560 L1060 430 C1070 350 1020 330 935 330Z" fill="#555555" stroke="#111111" stroke-width="10"/><path d="M895 560 L875 620 M1025 560 L1050 620" stroke="#111111" stroke-width="12" stroke-linecap="round"/><rect x="170" y="690" width="250" height="170" fill="#EFE6D8"/><rect x="500" y="690" width="250" height="170" fill="#EFE6D8"/><rect x="830" y="690" width="250" height="170" fill="#EFE6D8"/><rect x="1160" y="690" width="250" height="170" fill="#EFE6D8"/><path d="M235 782 Q300 730 360 790 Q340 820 230 820 Q210 808 235 782Z" fill="#111111"/><rect x="565" y="740" width="88" height="86" rx="12" fill="#8B5A36"/><path d="M585 740 Q610 695 635 740" fill="none" stroke="#111111" stroke-width="12"/><circle cx="950" cy="775" r="58" fill="#222222"/><circle cx="950" cy="775" r="35" fill="#F7F1E7"/><rect x="1288" y="715" width="28" height="110" rx="10" fill="#111111"/><circle cx="1302" cy="715" r="34" fill="#111111"/><circle cx="1302" cy="715" r="18" fill="#F7F1E7"/><rect width="1600" height="1000" fill="#FFFFFF" filter="url(#grain)" opacity="0.18"/></svg>