<svg xmlns="http://www.w3.org/2000/svg" width="1600" height="1000" viewBox="0 0 1600 1000">
<defs>
  <filter id="grain" x="-10%" y="-10%" width="120%" height="120%">
    <feTurbulence type="fractalNoise" baseFrequency="0.8" numOctaves="2" seed="7" result="noise"/>
    <feColorMatrix in="noise" type="saturate" values="0"/>
    <feComponentTransfer>
      <feFuncA type="table" tableValues="0 0.055"/>
    </feComponentTransfer>
  </filter>
  <filter id="softShadow" x="-20%" y="-20%" width="140%" height="140%">
    <feDropShadow dx="12" dy="12" stdDeviation="0" flood-color="#111111" flood-opacity="1"/>
  </filter>
  
</defs>
<rect width="1600" height="1000" fill="#55C9B3"/>
<rect x="90" y="160" width="205" height="240" rx="10" fill="#FFF9EF" stroke="#111111" stroke-width="8" filter="url(#softShadow)"/><text x="192" y="205" font-family="Arial, Helvetica, sans-serif" font-size="22" font-weight="900" fill="#111111" text-anchor="middle" letter-spacing="0">PDF / DOCS</text><path d="M160 245 H220 L245 270 V350 H160Z" fill="#FFFFFF" stroke="#111111" stroke-width="7"/><path d="M220 245 V275 H247" fill="none" stroke="#111111" stroke-width="7"/><path d="M178 300 H230 M178 325 H230" stroke="#111111" stroke-width="7"/><path d="M310 280 H375" stroke="#111111" stroke-width="10"/><path d="M347 258 L375 280 L347 302" fill="none" stroke="#111111" stroke-width="10"/><rect x="395" y="160" width="205" height="240" rx="10" fill="#FFF9EF" stroke="#111111" stroke-width="8" filter="url(#softShadow)"/><text x="497" y="205" font-family="Arial, Helvetica, sans-serif" font-size="22" font-weight="900" fill="#111111" text-anchor="middle" letter-spacing="0">CHUNKING</text><rect x="461" y="245" width="26" height="26" fill="#77C66E" stroke="#111111" stroke-width="3"/><rect x="499" y="245" width="26" height="26" fill="#77C66E" stroke="#111111" stroke-width="3"/><rect x="537" y="245" width="26" height="26" fill="#77C66E" stroke="#111111" stroke-width="3"/><rect x="461" y="283" width="26" height="26" fill="#77C66E" stroke="#111111" stroke-width="3"/><rect x="499" y="283" width="26" height="26" fill="#77C66E" stroke="#111111" stroke-width="3"/><rect x="537" y="283" width="26" height="26" fill="#77C66E" stroke="#111111" stroke-width="3"/><rect x="461" y="321" width="26" height="26" fill="#77C66E" stroke="#111111" stroke-width="3"/><rect x="499" y="321" width="26" height="26" fill="#77C66E" stroke="#111111" stroke-width="3"/><rect x="537" y="321" width="26" height="26" fill="#77C66E" stroke="#111111" stroke-width="3"/><path d="M615 280 H680" stroke="#111111" stroke-width="10"/><path d="M652 258 L680 280 L652 302" fill="none" stroke="#111111" stroke-width="10"/><rect x="700" y="160" width="205" height="240" rx="10" fill="#FFF9EF" stroke="#111111" stroke-width="8" filter="url(#softShadow)"/><text x="802" y="205" font-family="Arial, Helvetica, sans-serif" font-size="22" font-weight="900" fill="#111111" text-anchor="middle" letter-spacing="0">EMBEDDINGS</text><rect x="766" y="245" width="26" height="26" fill="#0B5A45" stroke="#111111" stroke-width="3"/><rect x="804" y="245" width="26" height="26" fill="#0B5A45" stroke="#111111" stroke-width="3"/><rect x="842" y="245" width="26" height="26" fill="#0B5A45" stroke="#111111" stroke-width="3"/><rect x="766" y="283" width="26" height="26" fill="#0B5A45" stroke="#111111" stroke-width="3"/><rect x="804" y="283" width="26" height="26" fill="#0B5A45" stroke="#111111" stroke-width="3"/><rect x="842" y="283" width="26" height="26" fill="#0B5A45" stroke="#111111" stroke-width="3"/><rect x="766" y="321" width="26" height="26" fill="#0B5A45" stroke="#111111" stroke-width="3"/><rect x="804" y="321" width="26" height="26" fill="#0B5A45" stroke="#111111" stroke-width="3"/><rect x="842" y="321" width="26" height="26" fill="#0B5A45" stroke="#111111" stroke-width="3"/><path d="M920 280 H985" stroke="#111111" stroke-width="10"/><path d="M957 258 L985 280 L957 302" fill="none" stroke="#111111" stroke-width="10"/><rect x="1005" y="160" width="205" height="240" rx="10" fill="#FFF9EF" stroke="#111111" stroke-width="8" filter="url(#softShadow)"/><text x="1107" y="205" font-family="Arial, Helvetica, sans-serif" font-size="22" font-weight="900" fill="#111111" text-anchor="middle" letter-spacing="0">VECTOR DB</text><ellipse cx="1107" cy="265" rx="60" ry="28" fill="#74C9A6" stroke="#111111" stroke-width="7"/><path d="M1047 265 V335 C1047 370 1167 370 1167 335 V265" fill="#74C9A6" stroke="#111111" stroke-width="7"/><ellipse cx="1107" cy="335" rx="60" ry="28" fill="#74C9A6" stroke="#111111" stroke-width="7"/><path d="M1225 280 H1290" stroke="#111111" stroke-width="10"/><path d="M1262 258 L1290 280 L1262 302" fill="none" stroke="#111111" stroke-width="10"/><rect x="1310" y="160" width="205" height="240" rx="10" fill="#FFF9EF" stroke="#111111" stroke-width="8" filter="url(#softShadow)"/><text x="1412" y="205" font-family="Arial, Helvetica, sans-serif" font-size="22" font-weight="900" fill="#111111" text-anchor="middle" letter-spacing="0">LLM</text><path d="M1376 280 C1376 230 1448 230 1448 280 C1475 290 1475 350 1435 355 C1425 395 1380 390 1388 350 C1345 342 1348 294 1376 280Z" fill="#FFFFFF" stroke="#111111" stroke-width="7"/><path d="M1392 276 C1415 300 1435 300 1455 278 M1400 323 H1445" fill="none" stroke="#111111" stroke-width="6"/><rect x="320" y="625" width="960" height="155" rx="10" fill="#111111" filter="url(#softShadow)"/><circle cx="410" cy="702" r="26" fill="#C8F020"/><path d="M395 697 H425 M402 712 H418" stroke="#111111" stroke-width="7"/><text x="520" y="725" font-family="Arial, Helvetica, sans-serif" font-size="38" font-weight="800" fill="#FFFFFF" text-anchor="start" letter-spacing="0">Grounded answer from retrieved context</text><path d="M1375 405 V702 H1285" fill="none" stroke="#111111" stroke-width="9"/><path d="M1285 702 L1315 680 M1285 702 L1315 724" fill="none" stroke="#111111" stroke-width="9"/><rect width="1600" height="1000" fill="#FFFFFF" filter="url(#grain)" opacity="0.14"/></svg>